<svg width="20" height="20" viewBox="0 0 20 20" fill="none" xmlns="http://www.w3.org/2000/svg">
<path d="M7.11168 2.93776C8.12586 2.61861 9.02811 2.35713 9.54415 2.21082C9.84434 2.12571 10.1537 2.12958 10.4518 2.22148C11.8344 2.64763 16.0106 3.96688 17.6561 4.84819L14.745 6.07384L7.11168 2.93776Z" fill="#667185"/>
<path d="M5.28805 3.53992C4.07575 3.96263 2.92606 4.41768 2.25903 4.81707C2.28133 4.82365 2.30349 4.83153 2.32542 4.84077L9.99953 8.07189L13.1205 6.75782L5.28805 3.53992Z" fill="#667185"/>
<path d="M1.57703 5.78401C1.38086 7.16623 1.5325 11.492 1.61802 13.5174C1.64549 14.1681 2.05381 14.7385 2.65849 14.9804L9.38059 17.6692C9.38701 17.6718 9.39343 17.6743 9.39987 17.6768C9.38338 17.6207 9.37453 17.5614 9.37453 17.5V9.16502L1.84036 5.99281C1.73114 5.94683 1.64182 5.87344 1.57703 5.78401Z" fill="#667185"/>
<path d="M10.5992 17.6768C10.6056 17.6743 10.6121 17.6718 10.6186 17.6692L17.3407 14.9803C17.9454 14.7385 18.3537 14.1681 18.3811 13.5174C18.4667 11.4919 18.6184 7.16606 18.4221 5.78392C18.3573 5.87339 18.268 5.94682 18.1587 5.99281L10.6245 9.16502V17.5C10.6245 17.5614 10.6157 17.6208 10.5992 17.6768Z" fill="#667185"/>
</svg>
