<svg width="20" height="20" viewBox="0 0 20 20" fill="none" xmlns="http://www.w3.org/2000/svg">
<path d="M3.07454 1.66675C2.61431 1.66675 2.24121 2.03984 2.24121 2.50008C2.24121 2.96032 2.61431 3.33341 3.07454 3.33341C3.68156 3.33341 4.21187 3.77448 4.32105 4.39509L4.8927 7.64447C4.89764 7.67252 4.90392 7.69999 4.91148 7.72684L5.08019 8.66968C5.55154 11.3039 5.78721 12.621 6.60229 13.5251C6.90475 13.8607 7.25945 14.1488 7.65369 14.3792C8.71612 15.0001 10.1019 15.0001 12.8735 15.0001H13.2118C14.464 15.0001 15.0901 15.0001 15.6055 14.7804C16.0245 14.6018 16.3887 14.3221 16.6632 13.9683C17.0007 13.5332 17.1411 12.9447 17.4219 11.7678C17.846 9.99015 18.0581 9.10135 17.8112 8.40626C17.6119 7.84522 17.2179 7.36777 16.6957 7.05467C16.0487 6.66675 15.1031 6.66675 13.2118 6.66675H6.41296L5.96251 4.10631C5.71533 2.70128 4.50316 1.66675 3.07454 1.66675Z" fill="#175CFF"/>
<path d="M8.74959 17.2917C8.74959 17.867 8.28322 18.3334 7.70793 18.3334C7.13263 18.3334 6.66626 17.867 6.66626 17.2917C6.66626 16.7165 7.13263 16.2501 7.70793 16.2501C8.28322 16.2501 8.74959 16.7165 8.74959 17.2917Z" fill="#175CFF"/>
<path d="M15.2079 18.3334C15.7832 18.3334 16.2496 17.867 16.2496 17.2917C16.2496 16.7165 15.7832 16.2501 15.2079 16.2501C14.6326 16.2501 14.1663 16.7165 14.1663 17.2917C14.1663 17.867 14.6326 18.3334 15.2079 18.3334Z" fill="#175CFF"/>
</svg>
