<svg width="20" height="20" viewBox="0 0 20 20" fill="none" xmlns="http://www.w3.org/2000/svg">
<g clip-path="url(#clip0_1956_994)">
<path fill-rule="evenodd" clip-rule="evenodd" d="M13.8066 2.74766C12.7993 1.77324 11.2008 1.77324 10.1935 2.74766C9.61754 3.30487 8.81664 3.5651 8.02314 3.45286C6.63551 3.25659 5.34227 4.19618 5.10013 5.57654C4.96167 6.3659 4.46669 7.04718 3.75876 7.42279C2.52078 8.07963 2.0268 9.59993 2.64227 10.859C2.99422 11.579 2.99422 12.4211 2.64227 13.1411C2.0268 14.4001 2.52078 15.9204 3.75876 16.5773C4.46669 16.9529 4.96167 17.6342 5.10013 18.4235C5.34227 19.8039 6.63551 20.7435 8.02314 20.5472C8.81664 20.435 9.61754 20.6952 10.1935 21.2524C11.2008 22.2268 12.7993 22.2268 13.8066 21.2524C14.3825 20.6952 15.1834 20.435 15.977 20.5472C17.3646 20.7435 18.6578 19.8039 18.9 18.4235C19.0384 17.6342 19.5334 16.9529 20.2413 16.5773C21.4793 15.9204 21.9733 14.4001 21.3578 13.1411C21.0059 12.4211 21.0059 11.579 21.3578 10.859C21.9733 9.59993 21.4793 8.07963 20.2413 7.42279C19.5334 7.04718 19.0384 6.3659 18.9 5.57654C18.6578 4.19618 17.3646 3.25659 15.977 3.45286C15.1834 3.5651 14.3825 3.30487 13.8066 2.74766ZM12 17C14.7615 17 17 14.7615 17 12C17 9.23861 14.7615 7.00003 12 7.00003C9.23862 7.00003 7.00004 9.23861 7.00004 12C7.00004 14.7615 9.23862 17 12 17Z" fill="#667185"/>
</g>
<defs>
<clipPath id="clip0_1956_994">
<rect width="20" height="20" fill="white"/>
</clipPath>
</defs>
</svg>
